<?xml version="1.0" encoding="utf-8"?>
<!-- Generator: Adobe Illustrator 25.0.0, SVG Export Plug-In . SVG Version: 6.00 Build 0)  -->
<svg version="1.1" id="Layer_1" xmlns="http://www.w3.org/2000/svg" xmlns:xlink="http://www.w3.org/1999/xlink" x="0px" y="0px"
	 viewBox="0 0 151 164" style="enable-background:new 0 0 151 164;" xml:space="preserve">
<style type="text/css">
	.st0{fill:none;stroke:#03DAC6;stroke-width:3;stroke-linecap:round;stroke-linejoin:round;}
	.st1{fill:none;stroke:#F04438;stroke-width:3;stroke-linecap:round;stroke-linejoin:round;}
	.st2{fill:#F04438;stroke:#F04438;stroke-width:3;stroke-linecap:round;stroke-linejoin:round;}
	.st3{fill:none;stroke:#03DAC6;stroke-width:2.9999;stroke-linecap:round;stroke-linejoin:round;}
	.st4{fill:#03DAC6;}
</style>
<path class="st0" d="M99.3,54.8C83.7,64,27.9,59,34.5,24C38.6,2.5,86.3-16.1,128,34.5c0,0,18.4,1.2,21,17.2
	c1.6,10.2-4.3,17.4-4.3,17.4s9.3,9.6-1.6,13.8"/>
<path class="st0" d="M129.6,22c1.8,5.9-1.6,12.4-1.6,12.4l8.7-3.2"/>
<path class="st1" d="M88.4,96.2l26.3-12.8"/>
<path class="st1" d="M97.8,125.4l32.8-4.9"/>
<path class="st0" d="M79.5,142.2c0,0,1,12.9,0.3,17.6"/>
<path class="st0" d="M48.9,52.1c0,0-6.2,25.4-1.4,42.6"/>
<path class="st0" d="M62.2,73.5l-1.9,9.1"/>
<path class="st0" d="M38.7,43.7C27.4,47.4,25.2,64.3,40.3,66c0,0-4,7.5,5.5,7.5"/>
<path class="st0" d="M122.2,81.7c1.3-2.8,3.9-4.7,6.8-4.7c4.2,0,7.7,3.9,7.7,8.7c0,3.5-1.9,6.6-4.6,7.9"/>
<path class="st2" d="M59,83.4c-6,0.2-18.6,17.5-18.6,36.2s13.8,25.2,27.5,25.2c18,0,29.9-19.5,29.9-19.5l-9.4-29.2
	C73.2,93.9,66.1,83.1,59,83.4z"/>
<path class="st3" d="M59,135.1c3.9-2,4.9-7.7,2.4-12.7c-2.6-5.1-7.8-7.6-11.6-5.7c-3.9,2-4.9,7.7-2.4,12.7
	C49.9,134.5,55.1,137.1,59,135.1z"/>
<path class="st0" d="M91.7,57.6c0,0,0.9,22.2,15,16.4c0,0-1.4,9.4,8,9.4"/>
<path class="st0" d="M115.4,90.8c-0.5-1.6-0.7-3.3-0.7-5.1c0-8.9,6.4-16.1,14.3-16.1s14.3,7.2,14.3,16.1s-6.4,16.1-14.3,16.1
	c-1.8,0-3.4-0.3-5-1"/>
<path class="st0" d="M130.7,101.8c0,0-1.6,31.2,7.8,55.8"/>
<path class="st4" d="M51.2,81.1c1.7,0,3.1-1.4,3.1-3.1s-1.4-3.1-3.1-3.1c-1.7,0-3.1,1.4-3.1,3.1S49.5,81.1,51.2,81.1z"/>
<path class="st4" d="M83,83.7c1.9,0,3.5-1.6,3.5-3.5S85,76.6,83,76.6s-3.5,1.6-3.5,3.5S81.1,83.7,83,83.7z"/>
<path class="st1" d="M17.6,131.9c-1.3-0.9-3.1-1.2-4.7-0.6c-2.6,1-3.9,3.9-2.9,6.5c1,2.6,4,3.9,7.6,3.5c7.7-0.8,16.9-7.5,16.9-7.5"
	/>
<path class="st1" d="M5.6,145.9c-2.8,1.1-4.1,4.2-3,6.9c1.1,2.7,4.3,4.1,8,3.7C25,155.1,38.2,140,38.2,140"/>
<path class="st1" d="M42.2,157.6c0.4,1.1,0.2,2.3-0.5,3.3c-1.2,1.6-3.4,1.9-4.9,0.8c-1.6-1.1-1.9-3.4-1-5.8c2-5.1,8.2-10,8.2-10"/>
</svg>
