<?xml version="1.0" encoding="utf-8"?>
<!-- Generator: Adobe Illustrator 25.0.0, SVG Export Plug-In . SVG Version: 6.00 Build 0)  -->
<svg version="1.1" id="Layer_1" xmlns="http://www.w3.org/2000/svg" xmlns:xlink="http://www.w3.org/1999/xlink" x="0px" y="0px"
	 viewBox="0 0 169 157" style="enable-background:new 0 0 169 157;" xml:space="preserve">
<style type="text/css">
	.st0{fill:none;stroke:#03DAC6;stroke-width:3;stroke-linecap:round;stroke-linejoin:round;}
	.st1{fill:#F04438;}
</style>
<path class="st0" d="M141.3,17.4c4.2,0,7.6-3.4,7.6-7.6c0-4.2-3.4-7.6-7.6-7.6c-4.2,0-7.6,3.4-7.6,7.6
	C133.8,14,137.1,17.4,141.3,17.4z"/>
<path class="st0" d="M146.9,108.2c11.1,0,20.1-9,20.1-20s-9-20.1-20.1-20.1s-20,9-20,20.1S135.9,108.2,146.9,108.2z"/>
<path class="st0" d="M56.5,154.8c4.8,0,8.7-3.9,8.7-8.8c0-4.8-3.9-8.8-8.7-8.8s-8.8,3.9-8.8,8.8C47.7,150.9,51.6,154.8,56.5,154.8z"
	/>
<path class="st0" d="M22,140.6c9.6,0,17.4-7.8,17.4-17.4c0-9.6-7.8-17.4-17.4-17.4s-17.4,7.8-17.4,17.4
	C4.6,132.8,12.4,140.6,22,140.6z"/>
<path class="st0" d="M12.7,29.9c5.9,0,10.7-4.8,10.7-10.7c0-5.9-4.8-10.7-10.7-10.7C6.8,8.5,2,13.3,2,19.2
	C2,25.1,6.8,29.9,12.7,29.9z"/>
<path class="st1" d="M152.6,66c-0.7-2.9-2.5-5.5-5-7.1c-1.9-1.2-4.1-1.7-5.9-1.3c-2.3,0.5-3.6,2-4.8,3.2c-1.1,1.2-2.1,2.3-3.8,2.6
	c-3.3-11.1-10.3-20.7-19.9-27.3c0.7-2.2,1.9-3,3.4-3.8c1.1-0.6,2.2-1.3,2.9-2.6c0.9-1.5,1-3.4,0.3-5.3c-1-2.9-3.6-5.4-7.1-6.8
	c-3.6-1.5-7.4-1.7-10-0.6c-1.4,0.6-2.5,1.6-3,3c-0.8,2-0.5,4-0.2,6c0.2,1.2,0.3,2.4,0.2,3.4c-4.8-1.5-9.9-2.3-15.1-2.3
	c-4.9,0-9.8,0.7-14.4,2.1c-2.5-1.6-2.2-3-1.9-4.8c0.2-1.2,0.5-2.6-0.2-4c-1.8-3.6-7.3-5.6-13.4-2.8c-2.9,1.4-5.1,3.6-6,6.1
	c-0.7,1.8-0.6,3.6,0.1,5.1c1,2,2.6,3.1,4.1,4.1c1.7,1.2,2.7,1.9,2.9,3.3C49.5,40.7,44.2,46.4,40.5,53c-0.1,0-0.2-0.1-0.2-0.1
	c-2-0.6-4.5-0.2-6.6,0.9c-1.8,1-4.1,2.8-5.3,6.6c-0.9,2.8-0.7,5.7,0.7,8c1.1,1.8,2.8,2.9,4.6,3.2c0.2,0,0.4,0,0.6,0.1
	C34,73.7,34,75.7,34,77.9c0,7.5,1.6,14.7,4.8,21.4c-1.4,0.7-2.9,0.6-4.5,0.6c-1.7,0-3.4-0.1-4.9,0.8c-1.7,1-3,2.9-3.5,5.2
	c-0.6,3,0.1,6.1,2.1,8.8c2.1,2.9,5.3,4.9,8.2,5.4c1.8,0.3,3.4-0.1,4.6-1c2-1.4,2.8-3.7,3.6-5.6c0.6-1.4,1-2.5,1.6-3
	c9.7,11.4,23.7,18,38.7,18c1.7,0,3.5-0.1,5.2-0.2c0,0.2,0,0.3-0.1,0.5c-0.2,1.3-0.3,2.6,0,3.9c0.4,1.5,1.4,2.7,3.1,3.6
	c1.5,0.8,3.3,1.1,5.2,1.1c1.9,0,4-0.4,5.9-1.1c2.9-1.2,5.1-3.2,6.2-5.8c0.8-1.9,0.9-3.9,0.2-5.5c-0.4-1-1-1.8-1.8-2.5
	c7.6-4.1,14-10,18.7-17.2c5.2-8.1,8-17.4,8.1-27.1c2.8-1.3,5.1-0.8,7.3-0.4c1.2,0.2,2.4,0.5,3.6,0.4c1.8-0.2,3.6-1.2,4.9-3
	C152.8,72.8,153.4,69.4,152.6,66z"/>
<path class="st0" d="M88.6,59c-1.4-2.8-1.4-5.9,0.3-7.9c2.6-3,7.9-2.6,12,0.9c4.1,3.5,5.3,8.8,2.8,11.8c-1.7,1.9-4.5,2.5-7.4,1.6"/>
<path class="st0" d="M74.3,82.7c4.7,0,8.6,3.8,8.6,8.6s-3.8,8.6-8.6,8.6c-4.7,0-8.6-3.8-8.6-8.6c0-1.7,0.5-3.2,1.3-4.5"/>
<path class="st0" d="M106.5,81.9c4,2,8,0.9,10.1,3.2c2.5,2.6,2.6,6.4-0.8,10.2s-8.1,4.6-11,2.4c-3.5-2.7-2.3-6.8-2.3-6.8"/>
<path class="st0" d="M99.2,33.4c4.2-3.6,0.3-8.8,1.9-12.8c1.2-3.1,6.4-3.4,11.1-1.5c5.6,2.2,7.7,7.1,6.1,9.9
	c-1.5,2.7-6.3,1.9-6.9,9.3"/>
<path class="st0" d="M47.2,71.8c-5.1-4.6-8.9-0.8-13.3-1.5c-3.3-0.5-5.7-4.5-4.2-9.3c1.8-5.7,7.1-7.4,10.1-6.5
	c3,0.9,3.1,5.9,9.8,3.8"/>
<path class="st0" d="M100.9,116c0.2,5.4,6.3,5.5,8,9.5c1.2,3.1-0.9,7.5-5.6,9.3c-5.6,2.2-11.4,0.7-12.2-2.5c-0.8-3,2.1-6.8-1.9-12.5
	"/>
</svg>
