<?xml version="1.0" encoding="utf-8"?>
<!-- Generator: Adobe Illustrator 25.0.0, SVG Export Plug-In . SVG Version: 6.00 Build 0)  -->
<svg version="1.1" id="Layer_1" xmlns="http://www.w3.org/2000/svg" xmlns:xlink="http://www.w3.org/1999/xlink" x="0px" y="0px"
	 viewBox="0 0 159 151" style="enable-background:new 0 0 159 151;" xml:space="preserve">
<style type="text/css">
	.st0{fill:none;stroke:#03DAC6;stroke-width:3;stroke-linecap:round;stroke-linejoin:round;}
	.st1{fill:none;stroke:#F04438;stroke-width:6;stroke-linecap:round;stroke-linejoin:round;}
</style>
<path class="st0" d="M52.4,36.4c-16.5-0.8-22.8,7-50.3-2.1"/>
<path class="st0" d="M2.1,101.8c0,0,13.2-3.5,27.2-4.2"/>
<path class="st1" d="M79.2,148c40,0,72.5-32.5,72.5-72.5c0-40-32.5-72.5-72.5-72.5C39.2,3,6.8,35.5,6.8,75.5
	C6.8,115.5,39.2,148,79.2,148z"/>
<path class="st0" d="M151.1,31.6c0,0-11.5,8.2-30,10.2c-17.1,1.8-30.3-19.1-44.6-19.1C62.2,22.8,53.7,38,40,45.9
	c-12.5,7.1-9.7,15.4,5,15c14.7-0.3,24.4-15,30.8-14.9c10,0.2,39.3,24.4,50,36.2c7.7,8.5-1.8,23.2-12.2,12.6
	c-10.7-10.8-20.7-17.6-20.7-17.6"/>
<path class="st0" d="M83.2,90.6c0,0,12.5,9.7,17.2,15.6c9.1,11.4,21.4-4.4,10.9-13.5"/>
<path class="st0" d="M57,94.2c14.1-12.9,22.9,2,11.8,13.3c-3,3.1-9,9.6-12.5,13.1c-8.4,8.2-21.6,0.4-13.9-10.1
	C45.7,105.8,52.8,97.9,57,94.2z"/>
<path class="st0" d="M70.4,105.6c3-4.1,17.3-4.2,11.3,7.4c-3.2,6.4-7.9,9.9-11.3,12.9c-5.5,4.8-17.9,4.2-11.8-7.8"/>
<path class="st0" d="M81.8,113.1c0,0,13.2,10.9,19.2,4.5c4.7-5-0.6-11.4-0.6-11.4"/>
<path class="st0" d="M75.8,121.2c0,0,1.5,5.9,8.5,5.3c7-0.6,7.5-7.8,7.5-7.8"/>
<path class="st0" d="M28.5,98.8c4-6.6,12.4-16.9,19.6-13.2c7,3.5,1.3,16.1-5,23.7s-11,7-14,5C25.2,111.7,24.8,105.1,28.5,98.8z"/>
<path class="st0" d="M128.1,92.3c0,0,13.1-5.2,28.9-6.3"/>
<path class="st1" d="M130.5,24.2L28,126.8"/>
</svg>
