<?xml version="1.0" encoding="utf-8"?>
<!-- Generator: Adobe Illustrator 25.0.0, SVG Export Plug-In . SVG Version: 6.00 Build 0)  -->
<svg version="1.1" id="Layer_1" xmlns="http://www.w3.org/2000/svg" xmlns:xlink="http://www.w3.org/1999/xlink" x="0px" y="0px"
	 viewBox="0 0 164 134" style="enable-background:new 0 0 164 134;" xml:space="preserve">
<style type="text/css">
	.st0{fill:none;stroke:#3B3858;stroke-width:3;stroke-linecap:round;stroke-linejoin:round;}
	.st1{fill:none;stroke:#03DAC6;stroke-width:3;stroke-linecap:round;stroke-linejoin:round;}
	.st2{fill:#F04438;}
	.st3{fill:#F8FAFF;}
</style>
<path class="st0" d="M122.2,82.9c0,0-4-17.9-22.4-25c-14.6-5.6-27.1-6.1-27.1-6.1s-14.8-6.5-25.9-13.5c-18.1-11.4-23.9-0.7-9.9,9"/>
<path class="st1" d="M23.3,54.2c-15.5-9.9-9.6-21.7,7.8-10.4c16.2,10.5,32.2,17.7,32.2,17.7s1.6-2.7,3.7-4.5"/>
<path class="st1" d="M54.2,81.9c0,0-8.4-1.4-32.4-12.8c-19-9-19.6,3.5-6.3,12c19.9,12.7,42,19.4,42,19.4"/>
<path class="st1" d="M56.4,76.8c0,0-2.5,4.8-2.6,8.9"/>
<path class="st1" d="M88.7,90.7c0,0-12.7-4.7-19.6,10.1c0,0-15.9-1.5-32.5,1.9c-16.6,3.5-11,15.5,1.9,15.6c12.9,0,24.7,1,38.6,5.8
	c12.4,4.3,22.6,1,28.7-6.1"/>
<path class="st1" d="M121.2,79.7c0,0,16.2,6.6,32.4,9.3"/>
<path class="st1" d="M103.7,120.1l29.8,11.7"/>
<path class="st1" d="M56.8,70.1c0,0-13.9-3.4-36.3-17.7C1.9,40.5-4.3,53.5,9.4,62.2c4.3,2.7,10.6,6.1,10.6,6.1"/>
<path class="st2" d="M32.6,95.9c3.6,0,6.5-2.9,6.5-6.6s-2.9-6.5-6.5-6.5S26,85.7,26,89.3S29,95.9,32.6,95.9z"/>
<path class="st2" d="M97,109.2c4,0,7.2-3.2,7.2-7.2c0-4-3.2-7.2-7.2-7.2c-4,0-7.2,3.2-7.2,7.2C89.8,106,93,109.2,97,109.2z"/>
<path class="st2" d="M114.9,93.6c5.6,0,10.2-4.6,10.2-10.2s-4.6-10.2-10.2-10.2c-5.6,0-10.2,4.6-10.2,10.2S109.3,93.6,114.9,93.6z"
	/>
<path class="st2" d="M61.2,96.1c2.6,0,4.7-2.1,4.7-4.7c0-2.6-2.1-4.7-4.7-4.7c-2.6,0-4.7,2.1-4.7,4.7C56.5,94,58.6,96.1,61.2,96.1z"
	/>
<path class="st2" d="M24.5,75.7c6.5,0,11.8-5.3,11.8-11.8S31.1,52,24.5,52s-11.8,5.3-11.8,11.8S18,75.7,24.5,75.7z"/>
<path class="st2" d="M76.2,96.8c11.9,0,21.5-9.6,21.5-21.5S88,53.9,76.2,53.9s-21.5,9.6-21.5,21.5S64.3,96.8,76.2,96.8z"/>
<path class="st2" d="M50.4,75.7c6.5,0,11.8-5.3,11.8-11.8S56.9,52,50.4,52s-11.8,5.3-11.8,11.8S43.8,75.7,50.4,75.7z"/>
<path class="st2" d="M98.7,84.9c8.5,0,15.3-6.9,15.3-15.3s-6.9-15.3-15.3-15.3c-8.5,0-15.3,6.9-15.3,15.3S90.2,84.9,98.7,84.9z"/>
<path class="st2" d="M120.3,77.7c5.6,0,10.2-4.6,10.2-10.2s-4.6-10.2-10.2-10.2c-5.6,0-10.2,4.6-10.2,10.2S114.7,77.7,120.3,77.7z"
	/>
<path class="st3" d="M154.7,2.2c-18.8,6.8-33.2,8.5-33.2,8.5C83.8,2.3,49,11.4,36.8,15.8c-8.3,3.1-10.2,8.7-7.2,10.9
	c-3.2,0.9-5.7,1.8-8.1,2.8c-6.3,2.7-10.2,10.6-0.8,11.7C2.9,46.5,5.4,58.5,22.1,55c4.9-1,12.4-2.5,12.4-2.5
	c-17.1,5.1-16.1,17.9,0.7,14.1c15.8-3.7,36.4-6.7,48.1-8.3c-5,3.1-13.2,9.1-19,14.3c-12.6,11.4-1.6,19,9.5,12.5
	c11.2-6.5,21.2-11.5,35.6-14.4c11.5-2.3,18.3-8.9,20.9-16.9l31.7-5"/>
<path class="st1" d="M20.8,41.2c-9.4-1.1-5.5-9,0.8-11.7c13.8-5.8,44.7-10.2,44.7-10.2"/>
<path class="st1" d="M69,45.6c0,0-14.5,0.9-34.5,6.9c-17.1,5.1-16.1,17.9,0.7,14.1c23-5.3,57.2-9.5,57.2-9.5"/>
<path class="st1" d="M83.2,58.2c-5,3.1-13.2,9.1-19,14.3c-12.6,11.4-1.7,19,9.5,12.5c11.2-6.5,21.2-11.5,35.6-14.4
	c12.8-2.6,20-10.6,21.7-19.8"/>
<path class="st1" d="M154.7,2.2c-18.8,6.8-33.2,8.5-33.2,8.5C83.8,2.3,49,11.4,36.8,15.8c-8.3,3.1-10.2,8.7-7.2,10.9"/>
<path class="st1" d="M130.3,53.7l31.7-5"/>
<path class="st1" d="M65.8,32.8c0,0-22.8,2.3-43.5,8C3.2,45.9,5.1,58.6,22.1,55c4.9-1,12.4-2.5,12.4-2.5"/>
</svg>
