<?xml version="1.0" encoding="utf-8"?>
<!-- Generator: Adobe Illustrator 25.0.0, SVG Export Plug-In . SVG Version: 6.00 Build 0)  -->
<svg version="1.1" id="Layer_1" xmlns="http://www.w3.org/2000/svg" xmlns:xlink="http://www.w3.org/1999/xlink" x="0px" y="0px"
	 viewBox="0 0 164 164" style="enable-background:new 0 0 164 164;" xml:space="preserve">
<style type="text/css">
	.st0{fill:#F04438;}
	.st1{fill:none;stroke:#03DAC6;stroke-width:3;stroke-linecap:round;stroke-linejoin:round;}
	.st2{fill:#03DAC6;}
	.st3{fill:none;stroke:#F04438;stroke-width:3;stroke-linecap:round;stroke-linejoin:round;}
	.st4{fill:#F04438;stroke:#F04438;stroke-width:3;stroke-linecap:round;stroke-linejoin:round;}
	.st5{fill:#F8FAFF;}
</style>
<path class="st0" d="M15.4,81.7v45.3c0,3.6,6.7,6.8,16.9,8.6c3,0.5,5.9-1.8,5.9-4.9V95.4c0-2.5-1.8-4.6-4.2-5
	C22.9,88.8,15.4,85.5,15.4,81.7z"/>
<path class="st1" d="M35.5,51.1V33.5"/>
<path class="st1" d="M65.7,33.5v17.6c0,2.4-6.8,4.3-15.1,4.3c-2.6,0-5-0.2-7.1-0.5"/>
<path class="st1" d="M65.7,51.1c0,0,20.1,10.3,20.1,33.1v67.8c0,5.6-15.8,10.1-35.2,10.1s-35.1-4.5-35.1-10.1V84.2
	c0-22.8,20.1-33.1,20.1-33.1"/>
<path class="st1" d="M50.6,37.8c8.3,0,15.1-1.9,15.1-4.3c0-2.4-6.7-4.3-15.1-4.3s-15.1,1.9-15.1,4.3C35.5,35.9,42.2,37.8,50.6,37.8z
	"/>
<path class="st2" d="M50.6,34c-1.7,0-3-1.3-3-3v-8.2c0-1.6,1.3-3,3-3c1.6,0,3,1.4,3,3V31C53.6,32.7,52.2,34,50.6,34z"/>
<path class="st0" d="M60.6,4.9V20c0,1.6-4.5,2.9-10,2.9s-10-1.3-10-2.9V4.9"/>
<path class="st3" d="M60.6,4.9V20c0,1.6-4.5,2.9-10,2.9s-10-1.3-10-2.9V4.9"/>
<path class="st4" d="M50.6,7.8c5.6,0,10-1.3,10-2.9S56.1,2,50.6,2c-5.6,0-10,1.3-10,2.9S45,7.8,50.6,7.8z"/>
<path class="st2" d="M84.3,34.4c-0.9,0-1.8-0.5-2.2-1.3l-4.9-9.2L57,16.2c-1.3-0.5-1.9-1.9-1.5-3.2c0.5-1.3,2-1.9,3.2-1.4l21.1,8.1
	c0.6,0.2,1,0.6,1.3,1.1l5.3,10c0.6,1.2,0.2,2.7-1,3.4C85.1,34.3,84.7,34.4,84.3,34.4z"/>
<path class="st5" d="M151.4,140.3l-32.4-4.9c-5,6.9-13.8,11.3-25.6,9.9c-15-1.7-27,0-39.9,2.9s-21.2-7.9-5.4-15.1
	c7.7-3.5,14.5-5.6,20.4-7c0,0-23.5-1.7-46.2-9.8C7.2,110.8,3,97.8,23.9,102.5c0,0-7-1.9-11.9-3.7c-15.7-5.6-12.3-19.9,8.8-12.3
	c1.4,0.5,1.9,0.7,3.2,1.1C6.4,81.3,9.7,68.2,29.5,75.6c2.2,0.8,4.4,1.6,6.5,2.3c-16.1-6.5-12.8-18.5,7.9-11.2
	c12.6,4.4,28.8,7.6,28.8,7.6s12.6-2.3,28.4,0c14.6,2.1,22.8,11.8,26.2,16.8c0,0,17.7,2.9,34.4,2"/>
<path class="st1" d="M129.1,94.1c0,0-8.1-16.9-28-19.8c-15.8-2.3-28.4,0-28.4,0s-16.2-3.2-28.8-7.6c-20.6-7.3-24,4.7-7.8,11.2"/>
<path class="st1" d="M24,87.7C6.3,81.3,9.6,68.2,29.5,75.5C48,82.4,65.6,85.9,65.6,85.9s1-3.1,2.7-5.4"/>
<path class="st1" d="M61.1,108.3c0,0-8.7,0.5-35.2-5.4c-21-4.7-18.7,7.9-3.5,13.3c22.7,8.2,46.2,9.8,46.2,9.8"/>
<path class="st1" d="M62.2,102.8c0,0-1.4,5.3-0.6,9.4"/>
<path class="st1" d="M97.4,109.4c0,0-13.7-1.9-17.3,14.4c0,0-16.2,2.1-32,9.2c-15.8,7.2-7.5,17.9,5.4,15.1
	c12.9-2.9,24.9-4.6,39.9-2.9c13.3,1.5,22.7-4.1,27.3-12.5"/>
<path class="st1" d="M127.3,91.1c0,0,17.7,2.9,34.4,2"/>
<path class="st1" d="M119.1,135.3l32.4,5"/>
<path class="st1" d="M61,96c0,0-14.7-0.3-40.2-9.5C-0.4,78.9-3.7,93.2,12,98.8c4.9,1.8,11.9,3.7,11.9,3.7"/>
<path class="st0" d="M84.3,42.3c0,0-5.6,6.8-5.6,11.4c0,3.1,2.5,5.6,5.6,5.6c3.1,0,5.6-2.5,5.6-5.6C89.9,49.2,84.3,42.3,84.3,42.3z"
	/>
</svg>
