<?xml version="1.0" encoding="utf-8"?>
<!-- Generator: Adobe Illustrator 25.0.0, SVG Export Plug-In . SVG Version: 6.00 Build 0)  -->
<svg version="1.1" id="Layer_1" xmlns="http://www.w3.org/2000/svg" xmlns:xlink="http://www.w3.org/1999/xlink" x="0px" y="0px"
	 viewBox="0 0 144 144" style="enable-background:new 0 0 144 144;" xml:space="preserve">
<style type="text/css">
	.st0{fill:none;stroke:#03DAC6;stroke-width:3;stroke-linecap:round;stroke-linejoin:round;}
	.st1{fill:#F04438;}
	.st2{fill-rule:evenodd;clip-rule:evenodd;fill:#F04438;}
</style>
<path class="st0" d="M142.2,112.4l-98.9,14.9c0,0-30.7-4.8-30.7-65.4V23.6l102.9-6.9"/>
<path class="st0" d="M142.2,112.4c0,0-26.7-6.2-26.7-67.7V16.8"/>
<path class="st0" d="M2.3,16.8v118.4"/>
<path class="st0" d="M2.3,135.1l10.3,6.9v-36.8"/>
<path class="st0" d="M115.5,16.8l-10.3-6.9L2.3,16.8l10.3,6.9"/>
<path class="st0" d="M12.6,142l102.9-10.9v-12.9"/>
<path class="st0" d="M12.6,45.8l102.9-6.9"/>
<path class="st0" d="M30.7,14.9c1.1-5.7,4.5-9.7,8.4-9.7c4.9,0,8.8,6.3,8.8,14s-4,14-8.8,14"/>
<path class="st0" d="M80.4,11.6C81.6,6,84.9,2,88.8,2c4.9,0,8.8,6.3,8.8,14s-3.9,14.1-8.8,14.1"/>
<path class="st1" d="M62,86.6l-3.9,0.4V59.9c0-1-0.4-1.8-1-2.4c-0.7-0.6-1.5-0.9-2.5-0.8l-1,0.1c-0.6,0-1.2,0.2-1.8,0.6l-6.8,4.1
	c-1.2,0.7-1.8,1.7-1.8,3c0,0.9,0.3,1.7,0.9,2.2c0.6,0.6,1.4,0.8,2.3,0.7c0.4,0,0.9-0.2,1.5-0.5l3.7-2.1v22.7l-5,0.4
	c-0.9,0.1-1.6,0.5-2.2,1.1c-0.6,0.6-0.9,1.4-0.9,2.2c0,0.9,0.3,1.6,0.9,2.2c0.5,0.5,1.2,0.7,2,0.7c0.1,0,0.2,0,0.3,0l15.5-1.4
	c0.8-0.1,1.6-0.4,2.2-1c0.6-0.6,0.9-1.4,0.9-2.2s-0.3-1.6-0.9-2.2C63.6,86.8,62.8,86.5,62,86.6z"/>
<path class="st2" d="M93.8,75.3c0.8-0.1,1.6,0.2,2.2,0.7c0.6,0.5,0.9,1.3,0.9,2.1c0,0.8-0.3,1.5-0.9,2.2c-0.6,0.6-1.3,0.9-2.1,1
	l-2.9,0.2v5.8c0,0.9-0.3,1.7-0.9,2.3c-0.6,0.6-1.4,1-2.2,1.1c-0.1,0-0.2,0-0.3,0c-0.8,0-1.5-0.2-2-0.8c-0.6-0.6-1-1.4-1-2.3v-5.6
	l-14.2,1.2c-1.1,0.1-2-0.2-2.8-0.9c-0.8-0.7-1.2-1.6-1.2-2.7v-0.4c0-0.9,0.3-1.8,0.8-2.5l15.8-21.1c0.3-0.5,0.8-0.9,1.4-1.2
	c0.6-0.3,1.2-0.5,1.8-0.5l1-0.1c1.2-0.1,2.1,0.2,2.9,0.9c0.8,0.7,1.1,1.6,1.1,2.7v18L93.8,75.3z M84.5,76.1V63.2L74.3,77L84.5,76.1z
	"/>
</svg>
