<svg width="169" height="157" viewBox="0 0 169 157" fill="none" xmlns="http://www.w3.org/2000/svg">
<path fill-rule="evenodd" clip-rule="evenodd" d="M141.325 17.35C145.509 17.35 148.9 13.9586 148.9 9.77501C148.9 5.59145 145.509 2.20001 141.325 2.20001C137.141 2.20001 133.75 5.59145 133.75 9.77501C133.75 13.9586 137.141 17.35 141.325 17.35Z" stroke="#3B3858" stroke-width="3" stroke-linecap="round" stroke-linejoin="round"/>
<path fill-rule="evenodd" clip-rule="evenodd" d="M146.95 108.225C158.023 108.225 167 99.2483 167 88.175C167 77.1017 158.023 68.125 146.95 68.125C135.877 68.125 126.9 77.1017 126.9 88.175C126.9 99.2483 135.877 108.225 146.95 108.225Z" stroke="#3B3858" stroke-width="3" stroke-linecap="round" stroke-linejoin="round"/>
<path fill-rule="evenodd" clip-rule="evenodd" d="M56.45 154.8C61.2825 154.8 65.2 150.882 65.2 146.05C65.2 141.217 61.2825 137.3 56.45 137.3C51.6175 137.3 47.7 141.217 47.7 146.05C47.7 150.882 51.6175 154.8 56.45 154.8Z" stroke="#3B3858" stroke-width="3" stroke-linecap="round" stroke-linejoin="round"/>
<path fill-rule="evenodd" clip-rule="evenodd" d="M22.025 140.65C31.6624 140.65 39.475 132.837 39.475 123.2C39.475 113.563 31.6624 105.75 22.025 105.75C12.3876 105.75 4.57501 113.563 4.57501 123.2C4.57501 132.837 12.3876 140.65 22.025 140.65Z" stroke="#3B3858" stroke-width="3" stroke-linecap="round" stroke-linejoin="round"/>
<path fill-rule="evenodd" clip-rule="evenodd" d="M12.7 29.875C18.6094 29.875 23.4 25.0845 23.4 19.175C23.4 13.2656 18.6094 8.47501 12.7 8.47501C6.79055 8.47501 2 13.2656 2 19.175C2 25.0845 6.79055 29.875 12.7 29.875Z" stroke="#3B3858" stroke-width="3" stroke-linecap="round" stroke-linejoin="round"/>
<path d="M152.6 65.975C151.95 63.075 150.15 60.475 147.625 58.9C145.7 57.675 143.55 57.225 141.775 57.625C139.5 58.15 138.2 59.6 137.025 60.875C135.875 62.125 134.95 63.175 133.175 63.45C129.875 52.35 122.875 42.725 113.275 36.125C113.925 33.9 115.2 33.175 116.65 32.325C117.75 31.7 118.875 31.05 119.575 29.775C120.425 28.275 120.525 26.4 119.85 24.5C118.825 21.575 116.225 19.1 112.725 17.7C109.125 16.25 105.275 16.05 102.7 17.15C101.25 17.775 100.225 18.8 99.7 20.1C98.925 22.075 99.2 24.125 99.45 26.075C99.625 27.3 99.775 28.45 99.65 29.5C94.8 28 89.75 27.225 84.6 27.225C79.675 27.225 74.825 27.925 70.15 29.325C67.7 27.7 67.95 26.35 68.275 24.5C68.5 23.25 68.75 21.85 68.05 20.45C66.275 16.875 60.775 14.875 54.675 17.675C51.75 19.025 49.525 21.225 48.625 23.725C47.975 25.475 48.025 27.3 48.75 28.85C49.7 30.875 51.35 32 52.825 33C54.525 34.15 55.5 34.9 55.7 36.3C49.45 40.65 44.225 46.4 40.5 53.025C40.425 53 40.35 52.975 40.275 52.95C38.3 52.375 35.825 52.725 33.675 53.875C31.9 54.825 29.525 56.725 28.325 60.45C27.425 63.3 27.675 66.2 29.025 68.425C30.1 70.175 31.775 71.35 33.65 71.675C33.85 71.7 34.05 71.725 34.275 71.75C34.05 73.65 33.95 75.65 33.95 77.875C33.95 85.375 35.55 92.575 38.7 99.3C37.3 99.975 35.775 99.95 34.15 99.925C32.5 99.9 30.8 99.875 29.3 100.7C27.575 101.65 26.25 103.6 25.75 105.9C25.1 108.875 25.825 112.025 27.825 114.725C29.925 117.6 33.1 119.65 36.075 120.1C37.875 120.375 39.475 120.025 40.7 119.125C42.65 117.675 43.525 115.475 44.275 113.55C44.85 112.125 45.275 111.1 45.85 110.55C55.5 122 69.55 128.55 84.575 128.55C86.3 128.55 88.025 128.475 89.725 128.3C89.7 128.475 89.675 128.625 89.65 128.8C89.475 130.125 89.3 131.4 89.625 132.675C90 134.15 91.075 135.375 92.725 136.225C94.225 136.975 96.025 137.375 97.925 137.375C99.85 137.375 101.9 137 103.825 136.225C106.675 135.075 108.925 133 110 130.475C110.8 128.6 110.875 126.625 110.2 124.95C109.775 123.925 109.15 123.125 108.45 122.45C116.025 118.375 122.45 112.45 127.125 105.225C132.375 97.15 135.15 87.8 135.2 78.15C138.025 76.825 140.3 77.3 142.5 77.75C143.75 78 144.95 78.25 146.15 78.15C147.975 77.975 149.75 76.9 151 75.2C152.825 72.775 153.375 69.425 152.6 65.975Z" fill="#F04438"/>
<path d="M88.55 59.05C87.125 56.225 87.15 53.175 88.875 51.175C91.45 48.175 96.825 48.6 100.9 52.1C104.975 55.6 106.2 60.875 103.65 63.85C102 65.775 99.15 66.3 96.275 65.475" stroke="#3B3858" stroke-width="3" stroke-linecap="round" stroke-linejoin="round"/>
<path d="M74.35 82.725C79.075 82.725 82.925 86.55 82.925 91.3C82.925 96.05 79.1 99.875 74.35 99.875C69.625 99.875 65.775 96.05 65.775 91.3C65.775 89.65 66.25 88.1 67.075 86.775" stroke="#3B3858" stroke-width="3" stroke-linecap="round" stroke-linejoin="round"/>
<path d="M106.525 81.9C110.525 83.925 114.55 82.8 116.65 85.05C119.125 87.7 119.25 91.475 115.85 95.225C112.45 98.975 107.725 99.825 104.825 97.625C101.325 94.975 102.55 90.825 102.55 90.825" stroke="#3B3858" stroke-width="3" stroke-linecap="round" stroke-linejoin="round"/>
<path d="M99.2 33.4C103.35 29.8 99.525 24.625 101.1 20.625C102.325 17.525 107.525 17.2 112.175 19.075C117.75 21.3 119.875 26.175 118.275 29.025C116.75 31.725 111.925 30.925 111.4 38.275" stroke="#3B3858" stroke-width="3" stroke-linecap="round" stroke-linejoin="round"/>
<path d="M47.175 71.75C42.05 67.15 38.3 70.95 33.9 70.225C30.625 69.675 28.225 65.725 29.75 60.95C31.575 55.25 36.875 53.575 39.85 54.425C42.825 55.275 42.975 60.325 49.65 58.225" stroke="#3B3858" stroke-width="3" stroke-linecap="round" stroke-linejoin="round"/>
<path d="M100.925 116C101.175 121.375 107.275 121.5 108.9 125.475C110.15 128.55 108.025 132.925 103.35 134.775C97.775 137 91.95 135.45 91.125 132.275C90.35 129.275 93.225 125.425 89.25 119.8" stroke="#3B3858" stroke-width="3" stroke-linecap="round" stroke-linejoin="round"/>
</svg>
