<svg width="164" height="164" viewBox="0 0 164 164" fill="none" xmlns="http://www.w3.org/2000/svg">
<path d="M15.425 81.65V126.95C15.425 130.575 22.175 133.75 32.275 135.525C35.325 136.05 38.15 133.7 38.15 130.6V95.425C38.15 92.95 36.35 90.85 33.925 90.475C22.9 88.8 15.425 85.475 15.425 81.65Z" fill="#F04438"/>
<path d="M35.525 51.1V33.525" stroke="#3B3858" stroke-width="3" stroke-linecap="round" stroke-linejoin="round"/>
<path d="M65.65 33.525V51.1C65.65 53.475 58.9 55.4 50.575 55.4C48 55.4 45.575 55.225 43.45 54.9" stroke="#3B3858" stroke-width="3" stroke-linecap="round" stroke-linejoin="round"/>
<path d="M65.65 51.1C65.65 51.1 85.75 61.4 85.75 84.15V151.95C85.75 157.5 70 162 50.6 162C31.2 162 15.45 157.5 15.45 151.95V84.15C15.45 61.4 35.55 51.1 35.55 51.1" stroke="#3B3858" stroke-width="3" stroke-linecap="round" stroke-linejoin="round"/>
<path fill-rule="evenodd" clip-rule="evenodd" d="M50.575 37.825C58.9007 37.825 65.65 35.8998 65.65 33.525C65.65 31.1502 58.9007 29.225 50.575 29.225C42.2493 29.225 35.5 31.1502 35.5 33.525C35.5 35.8998 42.2493 37.825 50.575 37.825Z" stroke="#3B3858" stroke-width="3" stroke-linecap="round" stroke-linejoin="round"/>
<path d="M50.575 34C48.925 34 47.575 32.65 47.575 31V22.8C47.575 21.15 48.925 19.8 50.575 19.8C52.225 19.8 53.575 21.15 53.575 22.8V31C53.575 32.675 52.25 34 50.575 34Z" fill="#3B3858"/>
<path d="M60.625 4.875V19.95C60.625 21.525 56.125 22.825 50.575 22.825C45.025 22.825 40.525 21.55 40.525 19.95V4.875" fill="#F04438"/>
<path d="M60.625 4.875V19.95C60.625 21.525 56.125 22.825 50.575 22.825C45.025 22.825 40.525 21.55 40.525 19.95V4.875" stroke="#F04438" stroke-width="3" stroke-linecap="round" stroke-linejoin="round"/>
<path d="M50.575 7.75C56.1255 7.75 60.625 6.46282 60.625 4.875C60.625 3.28718 56.1255 2 50.575 2C45.0246 2 40.525 3.28718 40.525 4.875C40.525 6.46282 45.0246 7.75 50.575 7.75Z" fill="#F04438" stroke="#F04438" stroke-width="3" stroke-linecap="round" stroke-linejoin="round"/>
<path d="M84.325 34.4C83.425 34.4 82.575 33.925 82.125 33.075L77.25 23.9L57 16.175C55.7 15.675 55.075 14.25 55.55 12.95C56.05 11.65 57.5 11.025 58.775 11.5L79.9 19.575C80.475 19.8 80.925 20.2 81.225 20.725L86.55 30.725C87.2 31.95 86.725 33.45 85.525 34.1C85.125 34.325 84.725 34.4 84.325 34.4Z" fill="#3B3858"/>
<path d="M151.45 140.3L119.05 135.35C114.075 142.3 105.3 146.625 93.425 145.3C78.45 143.625 66.45 145.325 53.575 148.2C40.7 151.075 32.375 140.275 48.175 133.1C55.825 129.625 62.65 127.525 68.6 126.1C68.6 126.1 45.075 124.425 22.375 116.25C7.22501 110.8 2.95001 97.8 23.9 102.5C23.9 102.5 16.9 100.55 12.025 98.825C-3.64999 93.225 -0.324989 78.9 20.85 86.55C22.25 87.05 22.725 87.225 24.075 87.675C6.35001 81.325 9.65001 68.175 29.5 75.55C31.7 76.375 33.9 77.15 36.05 77.875C19.925 71.375 23.275 59.425 43.9 66.675C56.525 71.125 72.725 74.275 72.725 74.275C72.725 74.275 85.3 71.975 101.125 74.3C115.725 76.45 123.975 86.075 127.35 91.1C127.35 91.1 145 94 161.775 93.1" fill="#F8FAFF"/>
<path d="M129.125 94.125C129.125 94.125 121.05 77.225 101.1 74.3C85.275 71.975 72.7 74.275 72.7 74.275C72.7 74.275 56.5 71.125 43.875 66.675C23.25 59.425 19.9 71.375 36.025 77.875" stroke="#3B3858" stroke-width="3" stroke-linecap="round" stroke-linejoin="round"/>
<path d="M24.05 87.65C6.32498 81.3 9.62498 68.15 29.475 75.525C47.975 82.375 65.55 85.925 65.55 85.925C65.55 85.925 66.575 82.825 68.25 80.575" stroke="#3B3858" stroke-width="3" stroke-linecap="round" stroke-linejoin="round"/>
<path d="M61.125 108.35C61.125 108.35 52.4 108.85 25.925 102.9C4.94998 98.2 7.22498 110.775 22.375 116.25C45.05 124.425 68.6 126.1 68.6 126.1" stroke="#3B3858" stroke-width="3" stroke-linecap="round" stroke-linejoin="round"/>
<path d="M62.15 102.8C62.15 102.8 60.725 108.125 61.6 112.25" stroke="#3B3858" stroke-width="3" stroke-linecap="round" stroke-linejoin="round"/>
<path d="M97.4 109.4C97.4 109.4 83.7 107.525 80.125 123.825C80.125 123.825 63.975 125.9 48.175 133.075C32.375 140.25 40.7 151.025 53.575 148.175C66.45 145.3 78.45 143.625 93.425 145.275C106.75 146.75 116.125 141.15 120.7 132.725" stroke="#3B3858" stroke-width="3" stroke-linecap="round" stroke-linejoin="round"/>
<path d="M127.325 91.075C127.325 91.075 144.975 93.975 161.75 93.075" stroke="#3B3858" stroke-width="3" stroke-linecap="round" stroke-linejoin="round"/>
<path d="M119.05 135.325L151.45 140.3" stroke="#3B3858" stroke-width="3" stroke-linecap="round" stroke-linejoin="round"/>
<path d="M61 96.025C61 96.025 46.35 95.725 20.825 86.525C-0.350014 78.875 -3.65001 93.2 12 98.8C16.875 100.55 23.875 102.475 23.875 102.475" stroke="#3B3858" stroke-width="3" stroke-linecap="round" stroke-linejoin="round"/>
<path d="M84.325 42.325C84.325 42.325 78.75 49.15 78.75 53.75C78.75 56.825 81.25 59.325 84.325 59.325C87.4 59.325 89.9 56.825 89.9 53.75C89.9 49.15 84.325 42.325 84.325 42.325Z" fill="#F04438"/>
</svg>
